#N canvas 1079 405 1920 993 12;
#X obj 601 899 lop~;
#X obj 1661 741 noise~;
#X obj 620 959 dac~;
#X msg 1613 485 0;
#X obj 280 621 print f_c;
#X obj 202 571 oscfloat;
#X obj 202 671 line;
#X obj 1661 509 readsf~ 2;
#X obj 662 899 lop~;
#X msg 1678 484 start;
#X msg 1736 484 stop;
#X obj 1661 534 *~;
#X obj 1692 534 *~;
#X obj 1569 349 vsl 15 128 -100 0 0 0 empty empty Read\ audio 0 -9
0 20 #fcfcfc #000000 #000000 0 1;
#X obj 1569 510 dbtorms;
#X obj 1569 485 + 100;
#X obj 1661 784 *~ 0.7;
#X msg 1588 719 0;
#X obj 1569 611 vsl 15 128 -100 0 0 0 empty empty Noise 0 -9 0 20 #fcfcfc
#000000 #000000 0 1;
#X obj 1569 772 dbtorms;
#X obj 1569 747 + 100;
#X obj 602 926 freeverb~;
#X msg 664 624 roomsize \$1;
#X msg 664 649 damping \$1;
#X msg 664 674 width \$1;
#X msg 664 699 wet \$1, f 7;
#X msg 664 724 dry \$1;
#X msg 664 749 freeze \$1;
#X msg 664 774 bypass \$1;
#X msg 664 799 print;
#X obj 312 741 hsl 150 15 100 20000 0 0 empty empty Lowpass -2 -8 0
15 #fcfcfc #000000 #000000 0 1;
#X obj 620 672 -;
#X msg 620 646 1;
#X obj 595 600 hsl 128 15 0 1 0 0 empty empty Reverb\ Dry/Wet -2 -8
0 15 #fcfcfc #000000 #000000 0 1;
#X obj 592 620 t f b f;
#X floatatom 202 521 5 0 0 0 port\ (lowpass\ f_c) - - 0;
#X msg 202 545 port \$1;
#X obj 1744 542 t b b;
#X text 1794 543 replay;
#X obj 592 419 oscfloat;
#X floatatom 592 369 5 0 0 0 port\ (reverb\ d/w) - - 0;
#X msg 592 393 port \$1;
#X obj 202 696 * 19990;
#X obj 202 721 + 100;
#X obj 36 25 loadbang;
#X obj 85 216 oscfloat;
#X floatatom 85 166 5 0 0 0 - - - 0;
#X msg 85 190 port \$1;
#X obj 651 469 print d_w;
#X msg 202 496 1025;
#X msg 592 344 1026;
#X msg 85 141 1024;
#X floatatom 85 268 5 0 0 0 t_update - - 0;
#X obj 592 444 t a a;
#X text 101 27 Receive OSC;
#X obj 257 267 bng 15 250 50 0 empty empty empty 17 7 0 10 #fcfcfc
#000000 #000000;
#X obj 85 242 route t_update setup_done;
#X obj 171 267 t b b;
#X text 127 141 setup port;
#X obj 202 596 t a a;
#X obj 85 317 value t_update;
#X obj 85 292 / 2;
#X obj 202 621 t f b;
#X obj 214 646 value t_update;
#X obj 592 469 t f b;
#X obj 592 519 line;
#X obj 604 494 value t_update;
#X msg 1661 414 open /home/david/Music/Track2.wav;
#X obj 1531 218 adc~;
#X msg 1613 193 0;
#X obj 1569 57 vsl 15 128 -100 0 0 0 empty empty Audio\ inlet 0 -9
0 20 #fcfcfc #000000 #000000 0 1;
#X obj 1569 218 dbtorms;
#X obj 1569 193 + 100;
#X obj 1546 263 *~;
#X obj 1577 263 *~;
#X obj 36 50 t b b;
#X connect 0 0 21 0;
#X connect 1 0 16 0;
#X connect 3 0 14 0;
#X connect 5 0 59 0;
#X connect 6 0 42 0;
#X connect 7 0 11 0;
#X connect 7 1 12 0;
#X connect 7 2 37 0;
#X connect 8 0 21 1;
#X connect 9 0 7 0;
#X connect 10 0 7 0;
#X connect 11 0 0 0;
#X connect 12 0 8 0;
#X connect 13 0 15 0;
#X connect 14 0 12 1;
#X connect 14 0 11 1;
#X connect 15 0 14 0;
#X connect 16 0 0 0;
#X connect 16 0 8 0;
#X connect 17 0 19 0;
#X connect 18 0 20 0;
#X connect 19 0 16 1;
#X connect 20 0 19 0;
#X connect 21 0 2 0;
#X connect 21 1 2 1;
#X connect 22 0 21 0;
#X connect 23 0 21 0;
#X connect 24 0 21 0;
#X connect 25 0 21 0;
#X connect 26 0 21 0;
#X connect 27 0 21 0;
#X connect 28 0 21 0;
#X connect 29 0 21 0;
#X connect 30 0 0 1;
#X connect 30 0 8 1;
#X connect 31 0 26 0;
#X connect 32 0 31 0;
#X connect 33 0 34 0;
#X connect 34 0 25 0;
#X connect 34 1 32 0;
#X connect 34 2 31 1;
#X connect 35 0 36 0;
#X connect 36 0 5 0;
#X connect 37 0 9 0;
#X connect 37 1 67 0;
#X connect 39 0 53 0;
#X connect 40 0 41 0;
#X connect 41 0 39 0;
#X connect 42 0 43 0;
#X connect 43 0 30 0;
#X connect 44 0 75 0;
#X connect 45 1 56 0;
#X connect 46 0 47 0;
#X connect 47 0 45 0;
#X connect 49 0 35 0;
#X connect 50 0 40 0;
#X connect 51 0 46 0;
#X connect 52 0 61 0;
#X connect 53 0 64 0;
#X connect 53 1 48 0;
#X connect 56 0 52 0;
#X connect 56 1 57 0;
#X connect 56 2 55 0;
#X connect 57 0 50 0;
#X connect 57 1 49 0;
#X connect 59 0 62 0;
#X connect 59 1 4 0;
#X connect 61 0 60 0;
#X connect 62 0 6 0;
#X connect 62 1 63 0;
#X connect 63 0 6 1;
#X connect 64 0 65 0;
#X connect 64 1 66 0;
#X connect 65 0 33 0;
#X connect 66 0 65 1;
#X connect 67 0 7 0;
#X connect 68 0 73 0;
#X connect 68 1 74 0;
#X connect 69 0 71 0;
#X connect 70 0 72 0;
#X connect 71 0 73 1;
#X connect 71 0 74 1;
#X connect 72 0 71 0;
#X connect 73 0 0 0;
#X connect 74 0 8 0;
#X connect 75 0 51 0;
#X connect 75 1 69 0;
#X connect 75 1 17 0;
#X connect 75 1 3 0;
