#N canvas 1012 260 455 230 12;
#X obj 144 176 lop~;
#X obj 32 68 noise~;
#X obj 32 111 *~;
#X floatatom 83 68 0 0 100 0 - - - 0;
#X obj 83 92 /~ 100;
#X obj 143 202 dac~;
#X msg 112 68 0;
#X floatatom 196 157 5 0 0 0 - - - 0;
#X obj 169 93 t f f;
#X obj 201 118 print f_c;
#X obj 169 68 oscfloat;
#X text 169 34 Receive OSC data (port: 1111): lowpass filter corner
frequency;
#X connect 0 0 5 0;
#X connect 1 0 2 0;
#X connect 2 0 0 0;
#X connect 3 0 4 0;
#X connect 4 0 2 1;
#X connect 6 0 4 0;
#X connect 7 0 0 1;
#X connect 8 0 0 1;
#X connect 8 1 9 0;
#X connect 10 0 8 0;
