#N canvas 1002 119 612 514 12;
#X obj 174 399 lop~;
#X obj 32 68 noise~;
#X obj 32 111 *~;
#X floatatom 83 68 0 0 100 0 - - - 0;
#X obj 83 92 /~ 100;
#X obj 173 425 dac~;
#X msg 112 68 0;
#X floatatom 226 380 5 0 0 0 - - - 0;
#X obj 199 93 t f f;
#X obj 231 118 print f_c;
#X obj 199 68 oscfloat;
#X text 199 34 Receive OSC data (port: 1111): lowpass filter corner
frequency;
#X obj 199 320 line;
#X msg 199 295 \$1 250;
#X text 265 305 Interpolate distance measurements;
#X obj 199 171 t f f;
#X obj 199 196 +;
#X obj 199 221 * 0.5;
#X text 247 195 interpolate between two consecutive values;
#X connect 0 0 5 0;
#X connect 1 0 2 0;
#X connect 2 0 0 0;
#X connect 3 0 4 0;
#X connect 4 0 2 1;
#X connect 6 0 4 0;
#X connect 7 0 0 1;
#X connect 8 0 15 0;
#X connect 8 1 9 0;
#X connect 10 0 8 0;
#X connect 12 0 0 1;
#X connect 13 0 12 0;
#X connect 15 0 16 1;
#X connect 15 1 16 0;
#X connect 16 0 17 0;
#X connect 17 0 13 0;
