#N canvas 283 111 1536 744 12;
#X obj 333 484 lop~;
#X obj 128 380 noise~;
#X obj 354 525 dac~;
#X msg 80 152 0;
#X obj 370 155 t f f;
#X obj 402 180 print f_c;
#X obj 370 130 oscfloat;
#X text 370 96 Receive OSC data (port: 1111): lowpass filter corner
frequency;
#X obj 370 275 line;
#X msg 370 250 \$1 250;
#X text 436 260 Interpolate distance measurements;
#X obj 762 220 t f f;
#X obj 762 245 +;
#X obj 762 270 * 0.5;
#X obj 762 295 t f f;
#X obj 794 320 print f_int;
#X text 810 244 interpolate between two consecutive values (simple
low pass filter of input data);
#X obj 128 176 readsf~ 2;
#X obj 390 484 lop~;
#X obj 370 300 t f f;
#X msg 145 151 start;
#X msg 203 151 stop;
#X msg 483 444 20000;
#X msg 482 472 10000;
#X msg 482 506 8000;
#X msg 482 540 2000;
#X obj 128 201 *~;
#X obj 159 201 *~;
#X obj 36 16 vsl 15 128 -100 0 0 0 empty empty empty 0 -9 0 10 #fcfcfc
#000000 #000000 0 1;
#X obj 36 177 dbtorms;
#X obj 36 152 + 100;
#X msg 128 81 open /home/david/Nextcloud/Music/Management\ Events\ 1/Track\ 2.wav
, f 25;
#X obj 128 423 *~ 0.7;
#X msg 55 358 0;
#X obj 36 250 vsl 15 128 -100 0 0 0 empty empty empty 0 -9 0 10 #fcfcfc
#000000 #000000 0 1;
#X obj 36 411 dbtorms;
#X obj 36 386 + 100;
#X connect 0 0 2 0;
#X connect 1 0 32 0;
#X connect 3 0 29 0;
#X connect 4 0 9 0;
#X connect 4 1 5 0;
#X connect 6 0 4 0;
#X connect 8 0 19 0;
#X connect 9 0 8 0;
#X connect 11 0 12 1;
#X connect 11 1 12 0;
#X connect 12 0 13 0;
#X connect 13 0 14 0;
#X connect 14 1 15 0;
#X connect 17 0 26 0;
#X connect 17 1 27 0;
#X connect 18 0 2 1;
#X connect 19 0 0 1;
#X connect 19 1 18 1;
#X connect 20 0 17 0;
#X connect 21 0 17 0;
#X connect 22 0 18 1;
#X connect 22 0 0 1;
#X connect 23 0 18 1;
#X connect 23 0 0 1;
#X connect 24 0 18 1;
#X connect 24 0 0 1;
#X connect 25 0 18 1;
#X connect 25 0 0 1;
#X connect 26 0 0 0;
#X connect 27 0 18 0;
#X connect 28 0 30 0;
#X connect 29 0 27 1;
#X connect 29 0 26 1;
#X connect 30 0 29 0;
#X connect 31 0 17 0;
#X connect 32 0 0 0;
#X connect 32 0 18 0;
#X connect 33 0 35 0;
#X connect 34 0 36 0;
#X connect 35 0 32 1;
#X connect 36 0 35 0;
