#N canvas 313 135 1536 744 12;
#X obj 125 477 lop~;
#X obj 509 147 noise~;
#X obj 354 636 dac~;
#X msg 80 152 0;
#X obj 1072 79 t f f;
#X obj 1104 104 print f_c;
#X obj 1072 54 oscfloat;
#X text 1072 20 Receive OSC data (port: 1111): lowpass filter corner
frequency;
#X obj 1072 199 line;
#X msg 1072 174 \$1 250;
#X text 1129 202 Interpolate distance measurements;
#X obj 128 176 readsf~ 2;
#X obj 163 477 lop~;
#X msg 145 151 start;
#X msg 203 151 stop;
#X obj 128 201 *~;
#X obj 159 201 *~;
#X obj 36 16 vsl 15 128 -100 0 0 0 empty empty empty 0 -9 0 10 #fcfcfc
#000000 #000000 0 1;
#X obj 36 177 dbtorms;
#X obj 36 152 + 100;
#X msg 128 81 open /home/david/Nextcloud/Music/Management\ Events\ 1/Track\ 2.wav
, f 25;
#X obj 509 190 *~ 0.7;
#X msg 436 125 0;
#X obj 417 17 vsl 15 128 -100 0 0 0 empty empty empty 0 -9 0 10 #fcfcfc
#000000 #000000 0 1;
#X obj 417 178 dbtorms;
#X obj 417 153 + 100;
#X obj 820 480 freeverb~;
#X msg 939 398 roomsize \$1;
#X msg 939 423 damping \$1;
#X msg 939 448 width \$1;
#X msg 939 473 wet \$1;
#X msg 939 498 dry \$1;
#X msg 939 523 freeze \$1;
#X msg 939 548 bypass \$1;
#X msg 939 573 print;
#X obj 29 547 hsl 128 15 1000 5000 0 0 empty empty empty -2 -8 0 10
#fcfcfc #000000 #000000 0 1;
#X obj 1069 501 -;
#X msg 1069 475 1;
#X obj 1044 429 hsl 128 15 0 1 0 0 empty empty empty -2 -8 0 10 #fcfcfc
#000000 #000000 0 1;
#X obj 1041 449 t f b f;
#X obj 1072 224 t f f f;
#X text 839 418 REVERB:;
#X text 12 565 1kHz 5kHz;
#X text 38 475 LOWPASS:;
#X connect 0 0 2 0;
#X connect 1 0 21 0;
#X connect 3 0 18 0;
#X connect 4 0 9 0;
#X connect 4 1 5 0;
#X connect 6 0 4 0;
#X connect 8 0 40 0;
#X connect 9 0 8 0;
#X connect 11 0 15 0;
#X connect 11 1 16 0;
#X connect 12 0 2 1;
#X connect 13 0 11 0;
#X connect 14 0 11 0;
#X connect 15 0 0 0;
#X connect 15 0 26 0;
#X connect 16 0 12 0;
#X connect 16 0 26 1;
#X connect 17 0 19 0;
#X connect 18 0 16 1;
#X connect 18 0 15 1;
#X connect 19 0 18 0;
#X connect 20 0 11 0;
#X connect 21 0 0 0;
#X connect 21 0 12 0;
#X connect 22 0 24 0;
#X connect 23 0 25 0;
#X connect 24 0 21 1;
#X connect 25 0 24 0;
#X connect 26 0 2 0;
#X connect 26 1 2 1;
#X connect 27 0 26 0;
#X connect 28 0 26 0;
#X connect 29 0 26 0;
#X connect 30 0 26 0;
#X connect 31 0 26 0;
#X connect 32 0 26 0;
#X connect 33 0 26 0;
#X connect 34 0 26 0;
#X connect 35 0 12 1;
#X connect 35 0 0 1;
#X connect 36 0 31 0;
#X connect 37 0 36 0;
#X connect 38 0 39 0;
#X connect 39 0 30 0;
#X connect 39 1 37 0;
#X connect 39 2 36 1;
#X connect 40 0 0 1;
#X connect 40 1 12 1;
#X connect 40 2 38 0;
