#N canvas 1508 392 1287 886 12;
#X obj 493 470 lop~;
#X obj 509 147 noise~;
#X obj 470 811 dac~;
#X msg 80 152 0;
#X obj 652 96 t f f;
#X obj 684 121 print f_c;
#X obj 652 71 oscfloat;
#X obj 652 171 line;
#X msg 652 146 \$1 250;
#X obj 128 176 readsf~ 2;
#X obj 531 470 lop~;
#X msg 145 151 start;
#X msg 203 151 stop;
#X obj 128 201 *~;
#X obj 159 201 *~;
#X obj 36 16 vsl 15 128 -100 0 0 0 empty empty empty 0 -9 0 10 #fcfcfc
#000000 #000000 0 1;
#X obj 36 177 dbtorms;
#X obj 36 152 + 100;
#X msg 128 81 open /home/david/Nextcloud/Music/Management\ Events\ 1/Track\ 2.wav
, f 25;
#X obj 509 190 *~ 0.7;
#X msg 436 125 0;
#X obj 417 17 vsl 15 128 -100 0 0 0 empty empty empty 0 -9 0 10 #fcfcfc
#000000 #000000 0 1;
#X obj 417 178 dbtorms;
#X obj 417 153 + 100;
#X obj 482 700 freeverb~;
#X msg 586 498 roomsize \$1;
#X msg 586 523 damping \$1;
#X msg 586 548 width \$1;
#X msg 586 573 wet \$1;
#X msg 586 598 dry \$1;
#X msg 586 623 freeze \$1;
#X msg 586 648 bypass \$1;
#X msg 586 673 print;
#X obj 160 455 hsl 300 15 100 20000 0 0 empty empty empty -2 -8 0 10
#fcfcfc #000000 #000000 0 1;
#X obj 810 614 -;
#X msg 810 588 1;
#X obj 785 542 hsl 128 15 0 1 0 0 empty empty empty -2 -8 0 10 #fcfcfc
#000000 #000000 0 1;
#X obj 782 562 t f b f;
#X text 168 580 REVERB:;
#X text 161 431 LOWPASS:;
#X floatatom 652 21 5 0 0 0 - - - 0;
#X msg 652 45 port \$1;
#X obj 211 209 t b b;
#X text 143 473 100Hz 20kHz;
#X text 261 210 replay;
#X obj 652 356 t f f;
#X obj 970 96 t f f;
#X obj 1002 121 print f_c;
#X obj 970 71 oscfloat;
#X obj 970 171 line;
#X msg 970 146 \$1 250;
#X floatatom 970 21 5 0 0 0 - - - 0;
#X msg 970 45 port \$1;
#X text 724 71 Receive OSC: lowpass (corner frequency);
#X text 1042 71 Receive OSC: freeverb (dry/wet);
#X obj 652 196 * 19990;
#X obj 652 221 + 100;
#X connect 0 0 24 0;
#X connect 1 0 19 0;
#X connect 3 0 16 0;
#X connect 4 0 8 0;
#X connect 4 1 5 0;
#X connect 6 0 4 0;
#X connect 7 0 55 0;
#X connect 8 0 7 0;
#X connect 9 0 13 0;
#X connect 9 1 14 0;
#X connect 9 2 42 0;
#X connect 10 0 24 1;
#X connect 11 0 9 0;
#X connect 12 0 9 0;
#X connect 13 0 0 0;
#X connect 14 0 10 0;
#X connect 15 0 17 0;
#X connect 16 0 14 1;
#X connect 16 0 13 1;
#X connect 17 0 16 0;
#X connect 18 0 9 0;
#X connect 19 0 0 0;
#X connect 19 0 10 0;
#X connect 20 0 22 0;
#X connect 21 0 23 0;
#X connect 22 0 19 1;
#X connect 23 0 22 0;
#X connect 24 0 2 0;
#X connect 24 1 2 1;
#X connect 25 0 24 0;
#X connect 26 0 24 0;
#X connect 27 0 24 0;
#X connect 28 0 24 0;
#X connect 29 0 24 0;
#X connect 30 0 24 0;
#X connect 31 0 24 0;
#X connect 32 0 24 0;
#X connect 33 0 10 1;
#X connect 33 0 0 1;
#X connect 34 0 29 0;
#X connect 35 0 34 0;
#X connect 36 0 37 0;
#X connect 37 0 28 0;
#X connect 37 1 35 0;
#X connect 37 2 34 1;
#X connect 40 0 41 0;
#X connect 41 0 6 0;
#X connect 42 0 11 0;
#X connect 42 1 18 0;
#X connect 45 0 0 1;
#X connect 45 1 10 1;
#X connect 46 0 50 0;
#X connect 46 1 47 0;
#X connect 48 0 46 0;
#X connect 49 0 36 0;
#X connect 50 0 49 0;
#X connect 51 0 52 0;
#X connect 52 0 48 0;
#X connect 55 0 56 0;
#X connect 56 0 33 0;
