#N canvas 1189 399 555 455 12;
#X obj 253 249 oscparse;
#X obj 333 329 outlet;
#X obj 253 224 netreceive -b -u 1111;
#X obj 49 33 inlet;
#X msg 81 158 listen \$1;
#X obj 49 58 route port;
#X obj 116 83 print invalid input;
#X obj 49 133 print -n;
#X msg 49 108 listening on port \$1;
#X obj 49 83 t f f;
#X obj 333 304 list trim;
#X obj 251 304 expr $f2;
#X obj 253 274 t a a;
#X obj 251 329 outlet;
#X connect 0 0 12 0;
#X connect 2 0 0 0;
#X connect 3 0 5 0;
#X connect 4 0 2 0;
#X connect 5 0 9 0;
#X connect 5 1 6 0;
#X connect 8 0 7 0;
#X connect 9 0 8 0;
#X connect 9 1 4 0;
#X connect 10 0 1 0;
#X connect 11 0 13 0;
#X connect 12 0 11 0;
#X connect 12 1 10 0;
