#N canvas 1079 405 1920 993 12;
#X obj 1669 883 lop~;
#X obj 1688 943 dac~;
#X obj 68 805 line;
#X obj 1730 883 lop~;
#X obj 1670 910 freeverb~;
#X msg 1700 566 roomsize \$1;
#X msg 1700 591 damping \$1;
#X msg 1700 616 width \$1;
#X msg 1700 641 wet \$1, f 7;
#X msg 1700 666 dry \$1;
#X msg 1700 691 freeze \$1;
#X msg 1700 716 bypass \$1;
#X msg 1700 741 print;
#X obj 275 925 hsl 150 15 100 20000 0 0 empty empty Lowpass -2 -8 0
15 #fcfcfc #000000 #000000 0 1;
#X obj 1656 614 -;
#X msg 1656 588 1;
#X obj 1631 542 hsl 128 15 0 1 0 0 empty empty Reverb\\\ Dry/Wet -2
-8 0 15 #fcfcfc #000000 #000000 0 1;
#X obj 1628 562 t f b f;
#X obj 523 847 oscfloat;
#X floatatom 523 797 5 0 0 0 port\ (reverb\ d/w) - - 0;
#X msg 523 821 port \$1;
#X obj 36 25 loadbang;
#X obj 85 216 oscfloat;
#X floatatom 85 166 5 0 0 0 - - - 0;
#X msg 85 190 port \$1;
#X obj 582 897 print d_w;
#X msg 523 772 1026;
#X msg 85 141 1024;
#X floatatom 85 267 5 0 0 0 t_update - - 0;
#X obj 523 872 t a a;
#X text 101 27 Receive OSC;
#X obj 341 267 bng 15 250 50 0 empty empty empty 17 7 0 10 #fcfcfc
#000000 #000000;
#X obj 277 267 t b b;
#X text 127 141 setup port;
#X obj 85 316 value t_update;
#X obj 523 897 t f b;
#X obj 523 947 line;
#X obj 535 922 value t_update;
#X obj 405 201 adc~;
#X msg 487 176 0;
#X obj 443 40 vsl 15 128 -100 0 0 0 empty empty Audio\\\ inlet 0 -9
0 20 #fcfcfc #000000 #000000 0 1;
#X obj 443 201 dbtorms;
#X obj 443 176 + 100;
#X obj 420 246 *~;
#X obj 451 246 *~;
#X obj 36 50 t b b;
#X msg 519 408 1025;
#X floatatom 519 433 5 0 0 0 - - - 0;
#X msg 519 457 port \$1;
#X obj 519 482 oscfloat;
#X obj 519 507 t a a;
#X obj 551 532 print trig;
#X obj 1628 394 / 10;
#X obj 1628 469 line;
#X floatatom 1687 375 5 0 0 0 - - - 0;
#X obj 68 855 + \$1;
#X obj 149 805 t f f;
#X obj 68 830 * \$1;
#X obj 149 831 - 20000;
#X obj 149 856 * -1;
#X obj 85 291 * 1000;
#X obj 149 395 value f_min;
#X floatatom 149 421 5 0 0 0 f_min - - 0;
#X obj 149 370 t b f;
#X obj 1628 344 - 1;
#X obj 1628 369 * -1;
#X obj 85 242 route t_update f_min a_min setup_done;
#X obj 213 486 t b f;
#X obj 213 511 value a_min;
#X floatatom 213 536 5 0 0 0 a_min - - 0;
#X obj 1628 419 t f b;
#X obj 1660 444 value t_update;
#X obj 68 755 t f b;
#X obj 100 780 value t_update;
#X obj 519 557 t f f f;
#X obj 642 147 -;
#X floatatom 642 172 5 0 0 0 k - - 0;
#X obj 619 47 t f b b;
#X obj 665 72 value a_min;
#X obj 619 196 *;
#X obj 619 221 +;
#X obj 665 97 t f f;
#X msg 642 122 1;
#X obj 619 246 t f b;
#X obj 757 333 hsl 128 15 0 1 0 0 empty empty Amplitude -2 -8 0 15
#fcfcfc #000000 #000000 0 1;
#X obj 651 271 value t_update;
#X obj 619 296 line;
#X connect 0 0 4 0;
#X connect 2 0 57 0;
#X connect 3 0 4 1;
#X connect 4 0 1 0;
#X connect 4 1 1 1;
#X connect 5 0 4 0;
#X connect 6 0 4 0;
#X connect 7 0 4 0;
#X connect 8 0 4 0;
#X connect 9 0 4 0;
#X connect 10 0 4 0;
#X connect 11 0 4 0;
#X connect 12 0 4 0;
#X connect 13 0 0 1;
#X connect 13 0 3 1;
#X connect 14 0 9 0;
#X connect 15 0 14 0;
#X connect 16 0 17 0;
#X connect 17 0 8 0;
#X connect 17 1 15 0;
#X connect 17 2 14 1;
#X connect 18 0 29 0;
#X connect 19 0 20 0;
#X connect 20 0 18 0;
#X connect 21 0 45 0;
#X connect 22 1 66 0;
#X connect 23 0 24 0;
#X connect 24 0 22 0;
#X connect 26 0 19 0;
#X connect 27 0 23 0;
#X connect 28 0 60 0;
#X connect 29 0 35 0;
#X connect 29 1 25 0;
#X connect 32 1 46 0;
#X connect 35 0 36 0;
#X connect 35 1 37 0;
#X connect 37 0 36 1;
#X connect 38 0 43 0;
#X connect 38 1 44 0;
#X connect 39 0 41 0;
#X connect 40 0 42 0;
#X connect 41 0 43 1;
#X connect 41 0 44 1;
#X connect 42 0 41 0;
#X connect 43 0 0 0;
#X connect 44 0 3 0;
#X connect 45 0 27 0;
#X connect 45 1 39 0;
#X connect 46 0 47 0;
#X connect 47 0 48 0;
#X connect 48 0 49 0;
#X connect 49 0 50 0;
#X connect 50 0 74 0;
#X connect 50 1 51 0;
#X connect 52 0 70 0;
#X connect 53 0 16 0;
#X connect 54 0 52 1;
#X connect 55 0 13 0;
#X connect 56 0 58 0;
#X connect 56 1 55 1;
#X connect 57 0 55 0;
#X connect 58 0 59 0;
#X connect 59 0 57 1;
#X connect 60 0 34 0;
#X connect 61 0 62 0;
#X connect 62 0 56 0;
#X connect 63 0 61 0;
#X connect 63 1 61 0;
#X connect 64 0 65 0;
#X connect 65 0 52 0;
#X connect 66 0 28 0;
#X connect 66 1 63 0;
#X connect 66 2 67 0;
#X connect 66 3 32 0;
#X connect 66 4 31 0;
#X connect 67 0 68 0;
#X connect 67 1 68 0;
#X connect 68 0 69 0;
#X connect 70 0 53 0;
#X connect 70 1 71 0;
#X connect 71 0 53 1;
#X connect 72 0 2 0;
#X connect 72 1 73 0;
#X connect 73 0 2 1;
#X connect 74 0 72 0;
#X connect 74 1 64 0;
#X connect 74 2 77 0;
#X connect 75 0 76 0;
#X connect 76 0 79 1;
#X connect 77 0 79 0;
#X connect 77 1 82 0;
#X connect 77 2 78 0;
#X connect 78 0 81 0;
#X connect 79 0 80 0;
#X connect 80 0 83 0;
#X connect 81 0 75 1;
#X connect 81 1 80 1;
#X connect 82 0 75 0;
#X connect 83 0 86 0;
#X connect 83 1 85 0;
#X connect 85 0 86 1;
#X connect 86 0 44 1;
#X connect 86 0 43 1;
#X connect 86 0 84 0;
