#N canvas 1310 488 1440 730 12;
#X obj 1423 816 lop~;
#X obj 1129 990 dac~;
#X obj 1570 729 line;
#X obj 1483 816 lop~;
#X obj 981 860 freeverb~;
#X msg 855 835 wet \$1, f 7;
#X msg 878 810 dry \$1;
#X obj 1573 789 hsl 150 15 100 20000 1 1 empty empty Lowpass -2 -8
0 15 #fcfcfc #000000 #000000 14900 1;
#X obj 878 785 -;
#X msg 878 759 1;
#X obj 858 713 hsl 128 15 0 1 0 1 empty empty Reverb\\\ Dry/Wet -2
-8 0 15 #fcfcfc #000000 #000000 6350 1;
#X obj 855 733 t f b f;
#X obj 85 91 loadbang;
#X obj 85 216 oscfloat;
#X floatatom 85 166 5 0 0 0 - - - 0;
#X msg 85 190 port \$1;
#X msg 85 141 1024;
#X floatatom 139 287 5 0 0 0 t_update - - 0;
#X text 150 93 Receive OSC;
#X obj 579 267 bng 15 250 50 0 empty empty empty 17 7 0 10 #fcfcfc
#000000 #000000;
#X text 127 141 setup port;
#X obj 139 336 value t_update;
#X obj 731 333 adc~;
#X msg 813 308 0;
#X obj 769 172 vsl 15 128 -100 0 0 0 empty empty Audio\\\ inlet 0 -9
0 20 #fcfcfc #000000 #000000 0 1;
#X obj 769 333 dbtorms;
#X obj 769 308 + 100;
#X obj 746 378 *~;
#X obj 777 378 *~;
#X obj 85 116 t b b;
#X msg 85 404 1025;
#X floatatom 85 429 5 0 0 0 setup_done - - 0;
#X msg 85 453 port \$1;
#X obj 85 478 oscfloat;
#X obj 85 503 t a a;
#X obj 117 528 print trig;
#X obj 855 660 line;
#X obj 139 311 * 1000;
#X obj 194 429 value f_min;
#X floatatom 194 455 5 0 0 0 f_min - - 0;
#X obj 194 404 t b f;
#X obj 249 315 t b f;
#X obj 249 340 value a_min;
#X floatatom 249 365 5 0 0 0 a_min - - 0;
#X obj 855 610 t f b;
#X obj 887 635 value t_update;
#X obj 1602 704 value t_update;
#X obj 917 276 t f b;
#X obj 920 384 hsl 128 15 0.001 1 1 1 empty empty Amplitude -2 -8 0
15 #fcfcfc #000000 #000000 12700 1;
#X obj 949 301 value t_update;
#X obj 917 326 line;
#X obj 1225 510 hml_shelf~;
#X obj 1306 510 hml_shelf~;
#X obj 1477 274 vsl 15 128 -40 10 0 1 empty empty empty 0 -9 0 15 #fcfcfc
#000000 #000000 10160 1;
#X floatatom 1477 410 5 0 0 0 Mid\ gain - - 0;
#X obj 1267 274 vsl 15 128 -40 10 0 1 empty empty empty 0 -9 0 15 #fcfcfc
#000000 #000000 10160 1;
#X floatatom 1267 410 5 0 0 0 Low\ gain - - 0;
#X obj 1627 274 vsl 15 128 -40 10 0 1 empty empty empty 0 -9 0 15 #fcfcfc
#000000 #000000 10160 1;
#X floatatom 1627 410 5 0 0 0 Hi\ gain - - 0;
#X obj 1327 294 vsl 15 128 30 400 0 1 empty empty empty 0 -9 0 15 #fcfcfc
#000000 #000000 12700 1;
#X obj 1687 294 vsl 15 128 900 14000 0 1 empty empty empty 0 -9 0 15
#fcfcfc #000000 #000000 12700 1;
#X floatatom 1327 430 5 0 0 0 Low\ freq - - 0;
#X floatatom 1687 430 5 0 0 0 Hi\ freq - - 0;
#X obj 85 553 t f f f f;
#X obj 1267 192 t f b;
#X obj 1267 242 line;
#X obj 1299 217 value t_update;
#X obj 1627 192 t f b;
#X obj 1627 242 line;
#X obj 1659 217 value t_update;
#X obj 304 404 t b f;
#X obj 304 429 value g_low;
#X floatatom 304 454 5 0 0 0 g_low - - 0;
#X obj 359 315 t b f;
#X floatatom 359 365 5 0 0 0 f_low - - 0;
#X obj 359 340 value f_low;
#X obj 414 404 t b f;
#X floatatom 414 454 5 0 0 0 g_high - - 0;
#X obj 469 315 t b f;
#X floatatom 469 365 5 0 0 0 f_high - - 0;
#X obj 469 340 value f_high;
#X obj 414 429 value g_high;
#X obj 1327 267 value f_low;
#X obj 1687 267 value f_high;
#X obj 1327 242 r done;
#X obj 1687 242 r done;
#X obj 722 177 vu 15 120 vu_pre empty -1 -8 0 10 #404040 #000000 1
0;
#X obj 678 433 env~;
#X obj 793 177 vu 15 120 vu_post empty -1 -8 0 10 #404040 #000000 1
0;
#X obj 678 483 s vu_pre;
#X obj 745 433 env~;
#X obj 745 483 s vu_post;
#X obj 745 458 - 106;
#X obj 678 458 - 106;
#X obj 1188 940 env~;
#X obj 1188 965 - 106;
#X obj 1188 990 s vu_out;
#X obj 1266 889 vu 15 120 vu_out empty -1 -8 0 10 #404040 #000000 1
0;
#X obj 923 201 route 0 1 2;
#X obj 947 226 value a_min;
#X obj 1033 226 value a_min;
#X obj 947 251 * 10;
#X obj 917 226 1;
#X obj 923 176 r amp;
#X obj 105 628 s amp;
#X obj 145 578 s hml;
#X obj 125 603 s rev;
#X obj 855 535 r rev;
#X obj 85 653 s lop;
#X obj 1546 579 r lop;
#X obj 1546 604 route 0 1 2;
#X obj 1526 629 20000;
#X obj 1656 629 value f_min;
#X obj 1570 629 value f_min;
#X obj 1570 654 * 2;
#X obj 1570 679 t f b;
#X obj 855 560 route 0 1 2;
#X obj 849 585 0.5;
#X obj 879 585 0.2;
#X obj 909 585 0.1;
#X obj 85 242 route setup_done t_update f_min a_min g_low f_low g_high
f_high g_mid, f 71;
#X obj 524 404 t b f;
#X floatatom 524 454 5 0 0 0 g_high - - 0;
#X obj 1403 13 r hml;
#X obj 1403 63 route 0 1 2;
#X obj 1285 142 value g_low;
#X obj 1397 88 0;
#X obj 1457 88 1;
#X obj 1427 88 0.7;
#X obj 1267 167 *;
#X obj 1645 142 value g_high;
#X obj 1403 38 t f b b b;
#X obj 1627 167 *;
#X obj 1477 192 t f b;
#X obj 1477 242 line;
#X obj 1509 217 value t_update;
#X obj 1477 167 *;
#X obj 1495 142 value g_mid;
#X obj 524 429 value g_mid;
#X connect 0 0 4 0;
#X connect 2 0 7 0;
#X connect 3 0 4 1;
#X connect 4 0 1 0;
#X connect 4 0 94 0;
#X connect 4 1 1 1;
#X connect 4 1 94 0;
#X connect 5 0 4 0;
#X connect 6 0 4 0;
#X connect 7 0 0 1;
#X connect 7 0 3 1;
#X connect 8 0 6 0;
#X connect 9 0 8 0;
#X connect 10 0 11 0;
#X connect 11 0 5 0;
#X connect 11 1 9 0;
#X connect 11 2 8 1;
#X connect 12 0 29 0;
#X connect 13 1 120 0;
#X connect 14 0 15 0;
#X connect 15 0 13 0;
#X connect 16 0 14 0;
#X connect 17 0 37 0;
#X connect 22 0 27 0;
#X connect 22 0 87 0;
#X connect 22 1 28 0;
#X connect 22 1 87 0;
#X connect 23 0 25 0;
#X connect 24 0 26 0;
#X connect 25 0 27 1;
#X connect 25 0 28 1;
#X connect 26 0 25 0;
#X connect 27 0 51 0;
#X connect 27 0 90 0;
#X connect 28 0 52 0;
#X connect 28 0 90 0;
#X connect 29 0 16 0;
#X connect 29 1 23 0;
#X connect 30 0 31 0;
#X connect 31 0 32 0;
#X connect 32 0 33 0;
#X connect 33 0 34 0;
#X connect 34 0 63 0;
#X connect 34 1 35 0;
#X connect 36 0 10 0;
#X connect 37 0 21 0;
#X connect 38 0 39 0;
#X connect 40 0 38 0;
#X connect 40 1 38 0;
#X connect 41 0 42 0;
#X connect 41 1 42 0;
#X connect 42 0 43 0;
#X connect 44 0 36 0;
#X connect 44 1 45 0;
#X connect 45 0 36 1;
#X connect 46 0 2 1;
#X connect 47 0 50 0;
#X connect 47 1 49 0;
#X connect 49 0 50 1;
#X connect 50 0 28 1;
#X connect 50 0 27 1;
#X connect 50 0 48 0;
#X connect 51 0 0 0;
#X connect 52 0 3 0;
#X connect 53 0 54 0;
#X connect 54 0 51 3;
#X connect 54 0 52 3;
#X connect 55 0 56 0;
#X connect 56 0 51 1;
#X connect 56 0 52 1;
#X connect 57 0 58 0;
#X connect 58 0 51 5;
#X connect 58 0 52 5;
#X connect 59 0 61 0;
#X connect 60 0 62 0;
#X connect 61 0 51 2;
#X connect 61 0 52 2;
#X connect 62 0 51 4;
#X connect 62 0 52 4;
#X connect 63 0 108 0;
#X connect 63 1 104 0;
#X connect 63 2 106 0;
#X connect 63 3 105 0;
#X connect 64 0 65 0;
#X connect 64 1 66 0;
#X connect 65 0 55 0;
#X connect 66 0 65 1;
#X connect 67 0 68 0;
#X connect 67 1 69 0;
#X connect 68 0 57 0;
#X connect 69 0 68 1;
#X connect 70 0 71 0;
#X connect 70 1 71 0;
#X connect 71 0 72 0;
#X connect 73 0 75 0;
#X connect 73 1 75 0;
#X connect 75 0 74 0;
#X connect 76 0 81 0;
#X connect 76 1 81 0;
#X connect 78 0 80 0;
#X connect 78 1 80 0;
#X connect 80 0 79 0;
#X connect 81 0 77 0;
#X connect 82 0 59 0;
#X connect 83 0 60 0;
#X connect 84 0 82 0;
#X connect 85 0 83 0;
#X connect 87 0 93 0;
#X connect 90 0 92 0;
#X connect 92 0 91 0;
#X connect 93 0 89 0;
#X connect 94 0 95 0;
#X connect 95 0 96 0;
#X connect 98 0 102 0;
#X connect 98 1 99 0;
#X connect 98 2 100 0;
#X connect 99 0 101 0;
#X connect 100 0 47 0;
#X connect 101 0 47 0;
#X connect 102 0 47 0;
#X connect 103 0 98 0;
#X connect 107 0 116 0;
#X connect 109 0 110 0;
#X connect 110 0 111 0;
#X connect 110 1 113 0;
#X connect 110 2 112 0;
#X connect 111 0 115 0;
#X connect 112 0 115 0;
#X connect 113 0 114 0;
#X connect 114 0 115 0;
#X connect 115 0 2 0;
#X connect 115 1 46 0;
#X connect 116 0 117 0;
#X connect 116 1 118 0;
#X connect 116 2 119 0;
#X connect 117 0 44 0;
#X connect 118 0 44 0;
#X connect 119 0 44 0;
#X connect 120 0 30 0;
#X connect 120 1 17 0;
#X connect 120 2 40 0;
#X connect 120 3 41 0;
#X connect 120 4 70 0;
#X connect 120 5 73 0;
#X connect 120 6 76 0;
#X connect 120 7 78 0;
#X connect 120 8 121 0;
#X connect 120 9 19 0;
#X connect 121 0 138 0;
#X connect 121 1 138 0;
#X connect 123 0 131 0;
#X connect 124 0 126 0;
#X connect 124 1 128 0;
#X connect 124 2 127 0;
#X connect 125 0 129 1;
#X connect 126 0 129 0;
#X connect 126 0 132 0;
#X connect 126 0 136 0;
#X connect 127 0 129 0;
#X connect 127 0 132 0;
#X connect 127 0 136 0;
#X connect 128 0 129 0;
#X connect 128 0 132 0;
#X connect 128 0 136 0;
#X connect 129 0 64 0;
#X connect 130 0 132 1;
#X connect 131 0 124 0;
#X connect 131 1 125 0;
#X connect 131 2 137 0;
#X connect 131 3 130 0;
#X connect 132 0 67 0;
#X connect 133 0 134 0;
#X connect 133 1 135 0;
#X connect 134 0 53 0;
#X connect 135 0 134 1;
#X connect 136 0 133 0;
#X connect 137 0 136 1;
#X connect 138 0 122 0;
