#N canvas 1079 405 1920 990 12;
#X obj 1121 730 lop~;
#X obj 1138 930 dac~;
#X obj 277 748 line;
#X obj 1181 730 lop~;
#X obj 1123 818 freeverb~;
#X msg 528 796 wet \$1, f 7;
#X msg 551 771 dry \$1;
#X obj 280 858 hsl 150 15 100 20000 0 1 empty empty Lowpass -2 -8 0
15 #fcfcfc #000000 #000000 14900 1;
#X obj 551 746 -;
#X msg 551 720 1;
#X obj 531 674 hsl 128 15 0 1 0 1 empty empty Reverb\ Dry/Wet -2 -8
0 15 #fcfcfc #000000 #000000 0 1;
#X obj 528 694 t f b f;
#X obj 36 25 loadbang;
#X obj 85 216 oscfloat;
#X floatatom 85 166 5 0 0 0 - - - 0;
#X msg 85 190 port \$1;
#X msg 85 141 1024;
#X floatatom 85 267 5 0 0 0 t_update - - 0;
#X text 101 27 Receive OSC;
#X obj 600 267 bng 15 250 50 0 empty empty empty 17 7 0 10 #fcfcfc
#000000 #000000;
#X text 127 141 setup port;
#X obj 85 316 value t_update;
#X obj 731 333 adc~;
#X msg 813 308 0;
#X obj 769 172 vsl 15 128 -100 0 0 0 empty empty Audio\\\ inlet 0 -9
0 20 #fcfcfc #000000 #000000 0 1;
#X obj 769 333 dbtorms;
#X obj 769 308 + 100;
#X obj 746 378 *~;
#X obj 777 378 *~;
#X obj 36 50 t b b;
#X msg 277 479 1025;
#X floatatom 277 504 5 0 0 0 setup_done - - 0;
#X msg 277 528 port \$1;
#X obj 277 553 oscfloat;
#X obj 277 578 t a a;
#X obj 309 603 print trig;
#X obj 528 546 / 10;
#X obj 528 621 line;
#X floatatom 587 527 5 0 0 0 - - - 0;
#X obj 277 798 + \$1;
#X obj 149 748 t f f;
#X obj 277 773 * \$1;
#X obj 149 774 - 20000;
#X obj 149 799 * -1;
#X obj 85 291 * 1000;
#X obj 149 395 value f_min;
#X floatatom 149 421 5 0 0 0 f_min - - 0;
#X obj 149 370 t b f;
#X obj 528 496 - 1;
#X obj 528 521 * -1;
#X obj 213 295 t b f;
#X obj 213 320 value a_min;
#X floatatom 213 345 5 0 0 0 a_min - - 0;
#X obj 528 571 t f b;
#X obj 560 596 value t_update;
#X obj 277 698 t f b;
#X obj 309 723 value t_update;
#X obj 940 177 -;
#X floatatom 940 202 5 0 0 0 k - - 0;
#X obj 917 77 t f b b;
#X obj 963 102 value a_min;
#X obj 917 226 *;
#X obj 917 251 +;
#X obj 963 127 t f f;
#X msg 940 152 1;
#X obj 917 276 t f b;
#X obj 920 384 hsl 128 15 0 1 0 1 empty empty Amplitude -2 -8 0 15
#fcfcfc #000000 #000000 0 1;
#X obj 949 301 value t_update;
#X obj 917 326 line;
#X obj 1109 633 hml_shelf~;
#X obj 1190 633 hml_shelf~;
#X obj 1331 397 vsl 15 128 -40 10 0 1 empty empty Mid\ gain 0 -9 0
15 #fcfcfc #000000 #000000 10160 1;
#X floatatom 1331 533 5 0 0 0 - - - 0;
#X obj 1151 397 vsl 15 128 -40 10 0 1 empty empty Low\ gain 0 -9 0
15 #fcfcfc #000000 #000000 10160 1;
#X floatatom 1151 533 5 0 0 0 - - - 0;
#X obj 1451 397 vsl 15 128 -40 10 0 1 empty empty High\ gain 0 -9 0
15 #fcfcfc #000000 #000000 10160 1;
#X floatatom 1451 533 5 0 0 0 - - - 0;
#X obj 1211 417 vsl 15 128 30 400 0 1 empty empty Low\\\ freq 0 -9
0 15 #fcfcfc #000000 #000000 12700 1;
#X obj 1511 417 vsl 15 128 900 14000 0 1 empty empty High\\\ freq 0
-9 0 15 #fcfcfc #000000 #000000 12700 1;
#X floatatom 1211 553 5 0 0 0 - - - 0;
#X floatatom 1511 553 5 0 0 0 - - - 0;
#X obj 277 628 t f f f f;
#X obj 1169 215 value g_low;
#X obj 1469 215 value g_high;
#X obj 1151 240 *;
#X obj 1451 240 *;
#X obj 1151 159 t f f b b;
#X obj 1151 265 t f b;
#X obj 1151 315 line;
#X obj 1183 290 value t_update;
#X obj 1451 265 t f b;
#X obj 1451 315 line;
#X obj 1483 290 value t_update;
#X obj 85 242 route t_update f_min a_min g_low f_low g_high f_high
setup_done, f 74;
#X obj 278 370 t b f;
#X obj 278 395 value g_low;
#X floatatom 278 420 5 0 0 0 g_low - - 0;
#X obj 342 295 t b f;
#X floatatom 342 345 5 0 0 0 f_low - - 0;
#X obj 342 320 value f_low;
#X obj 406 370 t b f;
#X floatatom 406 420 5 0 0 0 g_high - - 0;
#X obj 471 295 t b f;
#X floatatom 471 345 5 0 0 0 f_high - - 0;
#X obj 471 320 value f_high;
#X obj 406 395 value g_high;
#X obj 1211 352 value f_low;
#X obj 1511 352 value f_high;
#X obj 535 267 s done;
#X obj 1211 327 r done;
#X obj 277 454 r done;
#X obj 1511 327 r done;
#X obj 149 698 r done;
#X obj 149 723 value f_min;
#X connect 0 0 4 0;
#X connect 2 0 41 0;
#X connect 3 0 4 1;
#X connect 4 0 1 0;
#X connect 4 1 1 1;
#X connect 5 0 4 0;
#X connect 6 0 4 0;
#X connect 7 0 0 1;
#X connect 7 0 3 1;
#X connect 8 0 6 0;
#X connect 9 0 8 0;
#X connect 10 0 11 0;
#X connect 11 0 5 0;
#X connect 11 1 9 0;
#X connect 11 2 8 1;
#X connect 12 0 29 0;
#X connect 13 1 93 0;
#X connect 14 0 15 0;
#X connect 15 0 13 0;
#X connect 16 0 14 0;
#X connect 17 0 44 0;
#X connect 22 0 27 0;
#X connect 22 1 28 0;
#X connect 23 0 25 0;
#X connect 24 0 26 0;
#X connect 25 0 27 1;
#X connect 25 0 28 1;
#X connect 26 0 25 0;
#X connect 27 0 69 0;
#X connect 28 0 70 0;
#X connect 29 0 16 0;
#X connect 29 1 23 0;
#X connect 30 0 31 0;
#X connect 31 0 32 0;
#X connect 32 0 33 0;
#X connect 33 0 34 0;
#X connect 34 0 81 0;
#X connect 34 1 35 0;
#X connect 36 0 53 0;
#X connect 37 0 10 0;
#X connect 38 0 36 1;
#X connect 39 0 7 0;
#X connect 40 0 42 0;
#X connect 40 1 39 1;
#X connect 41 0 39 0;
#X connect 42 0 43 0;
#X connect 43 0 41 1;
#X connect 44 0 21 0;
#X connect 45 0 46 0;
#X connect 47 0 45 0;
#X connect 47 1 45 0;
#X connect 48 0 49 0;
#X connect 49 0 36 0;
#X connect 50 0 51 0;
#X connect 50 1 51 0;
#X connect 51 0 52 0;
#X connect 53 0 37 0;
#X connect 53 1 54 0;
#X connect 54 0 37 1;
#X connect 55 0 2 0;
#X connect 55 1 56 0;
#X connect 56 0 2 1;
#X connect 57 0 58 0;
#X connect 58 0 61 1;
#X connect 59 0 61 0;
#X connect 59 1 64 0;
#X connect 59 2 60 0;
#X connect 60 0 63 0;
#X connect 61 0 62 0;
#X connect 62 0 65 0;
#X connect 63 0 57 1;
#X connect 63 1 62 1;
#X connect 64 0 57 0;
#X connect 65 0 68 0;
#X connect 65 1 67 0;
#X connect 67 0 68 1;
#X connect 68 0 28 1;
#X connect 68 0 27 1;
#X connect 68 0 66 0;
#X connect 69 0 0 0;
#X connect 70 0 3 0;
#X connect 71 0 72 0;
#X connect 72 0 69 3;
#X connect 72 0 70 3;
#X connect 73 0 74 0;
#X connect 74 0 69 1;
#X connect 74 0 70 1;
#X connect 75 0 76 0;
#X connect 76 0 69 5;
#X connect 76 0 70 5;
#X connect 77 0 79 0;
#X connect 78 0 80 0;
#X connect 79 0 69 2;
#X connect 79 0 70 2;
#X connect 80 0 69 4;
#X connect 80 0 70 4;
#X connect 81 0 55 0;
#X connect 81 1 59 0;
#X connect 81 2 48 0;
#X connect 81 3 86 0;
#X connect 82 0 84 1;
#X connect 83 0 85 1;
#X connect 84 0 87 0;
#X connect 85 0 90 0;
#X connect 86 0 84 0;
#X connect 86 1 85 0;
#X connect 86 2 82 0;
#X connect 86 3 83 0;
#X connect 87 0 88 0;
#X connect 87 1 89 0;
#X connect 88 0 73 0;
#X connect 89 0 88 1;
#X connect 90 0 91 0;
#X connect 90 1 92 0;
#X connect 91 0 75 0;
#X connect 92 0 91 1;
#X connect 93 0 17 0;
#X connect 93 1 47 0;
#X connect 93 2 50 0;
#X connect 93 3 94 0;
#X connect 93 4 97 0;
#X connect 93 5 100 0;
#X connect 93 6 102 0;
#X connect 93 7 108 0;
#X connect 93 8 19 0;
#X connect 94 0 95 0;
#X connect 95 0 96 0;
#X connect 97 0 99 0;
#X connect 99 0 98 0;
#X connect 100 0 105 0;
#X connect 102 0 104 0;
#X connect 104 0 103 0;
#X connect 105 0 101 0;
#X connect 106 0 77 0;
#X connect 107 0 78 0;
#X connect 109 0 106 0;
#X connect 110 0 30 0;
#X connect 111 0 107 0;
#X connect 112 0 113 0;
#X connect 113 0 40 0;
